<svg xmlns="http://www.w3.org/2000/svg" width="500" height="500" viewBox="0 0 500 500">
  <defs>
    <style>
      .cls-1 {
        fill: #ebcb8b;
        fill-rule: evenodd;
      }
    </style>
  </defs>
  <path id="New_folder_icon_1" data-name="New folder icon 1" class="cls-1" d="M31,386.426s0-5.252,0-10.962v-263.1s3.474-16.947,13.14-26.309C54.177,76.338,70.42,74.186,70.42,74H207.3L250,117.849H431.77c0,0.186,15.7,3.153,25.185,13.155,9.126,9.628,12.045,26.31,12.045,26.31V385.33s-1.021,15.991-11.513,26.153c-4.018,3.891-10.812,8.845-16.119,10.771a40.829,40.829,0,0,1-12.883,2.54H90.13c-9.184,0-19.71,0-19.71,0s-15.881-2.21-26.28-12.058C34.3,403.415,31,386.426,31,386.426Z"/>
</svg>
